<?xml version="1.0" standalone="no"?>
<!DOCTYPE svg PUBLIC "-//W3C//DTD SVG 20010904//EN"
 "http://www.w3.org/TR/2001/REC-SVG-20010904/DTD/svg10.dtd">
<svg version="1.0" xmlns="http://www.w3.org/2000/svg"
 width="158.000000pt" height="60.000000pt" viewBox="0 0 158.000000 60.000000"
 preserveAspectRatio="xMidYMid meet">

<g transform="translate(0.000000,60.000000) scale(0.100000,-0.100000)"
fill="#1269C7" stroke="none">
<path d="M0 300 l0 -300 165 0 165 0 0 45 0 45 -120 0 -120 0 0 255 0 255 -45
0 -45 0 0 -300z"/>
<path d="M408 433 c-70 -70 -127 -130 -126 -133 2 -4 63 -64 136 -135 l133
-129 30 30 30 30 -91 80 c-49 43 -90 82 -90 87 0 4 36 7 80 7 l80 0 0 35 0 35
-80 0 c-47 0 -80 4 -80 10 0 6 3 10 8 10 4 0 43 34 87 74 l80 74 -24 26 c-14
14 -29 26 -34 26 -6 0 -68 -57 -139 -127z"/>
<path d="M688 545 l-27 -15 61 -107 c34 -60 61 -112 61 -118 0 -5 -28 -59 -61
-118 -34 -60 -62 -112 -62 -116 0 -7 69 -35 75 -29 1 1 14 26 28 53 14 28 36
70 50 94 l25 44 47 -94 c26 -52 49 -96 50 -97 7 -7 75 20 75 29 0 6 -28 58
-62 117 -34 59 -61 111 -61 117 0 5 16 37 35 70 19 33 47 81 62 107 l26 47
-29 16 c-17 8 -34 15 -40 15 -5 0 -31 -40 -57 -90 l-47 -90 -49 90 c-27 50
-54 90 -61 90 -7 -1 -24 -7 -39 -15z"/>
<path d="M1347 482 l-108 -77 103 -97 c63 -60 99 -101 93 -106 -6 -5 -40 -30
-77 -56 -56 -40 -66 -51 -58 -65 14 -28 38 -43 52 -35 51 32 208 147 208 153
0 5 -43 49 -95 100 -52 51 -95 94 -95 96 0 2 34 27 75 56 l75 51 -23 29 c-12
15 -26 28 -32 28 -5 0 -59 -35 -118 -77z"/>
<path d="M1080 300 l0 -250 40 0 40 0 0 250 0 250 -40 0 -40 0 0 -250z"/>
</g>
</svg>
