<svg width="3273" height="97" viewBox="0 0 3273 97" fill="none" xmlns="http://www.w3.org/2000/svg">
<path d="M1433.38 3.06095L1633.34 3.06095M1433.38 93.3315L1633.34 93.3315M1433.44 81.9811L1633.31 81.9811M1434.05 14.3322L1633.34 14.3322M1573.31 79.5519L1573.31 25.3261L1619.06 25.3261L1619.06 59.5727L1596.19 59.5727L1596.19 48.1566L1607.62 48.1566L1607.62 36.7406L1584.75 36.7406L1584.75 70.9872L1630.5 70.9872L1630.5 16.7614M1504.83 79.5519L1504.83 25.323L1550.49 25.323L1550.49 59.5727L1527.66 59.5727L1527.66 48.1557L1539.08 48.1557L1539.08 36.7388L1516.24 36.7388L1516.24 70.9884L1561.91 70.9884L1561.91 16.7596M1436.31 79.5519L1436.31 25.323L1481.97 25.323L1481.97 59.5727L1459.14 59.5727L1459.14 48.1557L1470.56 48.1557L1470.56 36.7388L1447.72 36.7388L1447.72 70.9884L1493.39 70.9884L1493.39 16.7596M1228.26 3.06095L1436.41 3.06095M1228.26 93.3315L1436.41 93.3315M1228.35 81.9811L1436.41 81.9811M1228.35 14.3322L1436.41 14.3322M1368.22 79.5519L1368.22 25.323L1413.88 25.323L1413.88 59.5727L1391.05 59.5727L1391.05 48.1557L1402.47 48.1557L1402.47 36.7388L1379.63 36.7388L1379.63 70.9884L1425.3 70.9884L1425.3 16.7596M1299.7 79.5519L1299.7 25.323L1345.37 25.323L1345.37 59.5727L1322.53 59.5727L1322.53 48.1557L1333.95 48.1557L1333.95 36.7388L1311.12 36.7388L1311.12 70.9884L1356.78 70.9884L1356.78 16.7596M1231.21 79.5519L1231.21 25.323L1276.88 25.323L1276.88 59.5727L1254.05 59.5727L1254.05 48.1557L1265.46 48.1557L1265.46 36.7388L1242.63 36.7388L1242.63 70.9884L1288.3 70.9884L1288.3 16.7596M1023.75 3.02872L1231.91 3.02871M1023.75 93.2993L1231.91 93.2993M1023.84 81.9519L1231.9 81.9519M1023.84 14.3L1231.9 14.3M1163.7 79.5227L1163.7 25.2939L1209.37 25.2939L1209.37 59.5435L1186.53 59.5435L1186.53 48.1265L1197.95 48.1265L1197.95 36.7096L1175.12 36.7096L1175.12 70.9592L1220.78 70.9592L1220.78 16.7304M1095.19 79.5227L1095.19 25.2939L1140.86 25.2939L1140.86 59.5435L1118.03 59.5435L1118.03 48.1265L1129.45 48.1265L1129.45 36.7096L1106.61 36.7096L1106.61 70.9592L1152.28 70.9592L1152.28 16.7304M1026.69 79.5227L1026.69 25.2939L1072.36 25.2939L1072.36 59.5435L1049.53 59.5435L1049.53 48.1265L1060.94 48.1265L1060.94 36.7096L1038.11 36.7096L1038.11 70.9592L1083.78 70.9592L1083.78 16.7304M818.644 3.02872L1026.8 3.02872M818.644 93.2993L1026.8 93.2993M818.733 81.9519L1026.8 81.9519M818.733 14.3L1026.8 14.3M958.59 79.5227L958.59 25.2939L1004.26 25.2939L1004.26 59.5435L981.423 59.5435L981.423 48.1265L992.84 48.1265L992.84 36.7096L970.006 36.7096L970.006 70.9592L1015.67 70.9592L1015.67 16.7304M890.087 79.5227L890.087 25.2939L935.755 25.2939L935.755 59.5435L912.921 59.5435L912.921 48.1265L924.338 48.1265L924.338 36.7096L901.504 36.7096L901.504 70.9592L947.171 70.9592L947.171 16.7304M821.588 79.5227L821.588 25.2939L867.255 25.2939L867.255 59.5435L844.421 59.5435L844.421 48.1265L855.838 48.1265L855.838 36.7096L833.004 36.7096L833.004 70.9592L878.671 70.9592L878.671 16.7304M614.719 3.03166L822.874 3.03166M614.719 93.3023L822.874 93.3023M614.807 81.9548L822.871 81.9548M614.807 14.3029L822.871 14.3029M754.668 79.5256L754.668 25.2968L800.335 25.2968L800.335 59.5464L777.501 59.5464L777.501 48.1295L788.918 48.1295L788.918 36.7125L766.084 36.7125L766.084 70.9622L811.751 70.9622L811.751 16.7333M686.162 79.5256L686.162 25.2968L731.83 25.2968L731.83 59.5464L708.996 59.5464L708.996 48.1295L720.413 48.1295L720.413 36.7125L697.579 36.7125L697.579 70.9622L743.246 70.9622L743.246 16.7333M617.66 79.5256L617.66 25.2968L663.327 25.2968L663.327 59.5464L640.493 59.5464L640.493 48.1295L651.91 48.1295L651.91 36.7125L629.076 36.7125L629.076 70.9622L674.744 70.9622L674.744 16.7333M409.612 3.03166L617.767 3.03166M409.612 93.3023L617.767 93.3023M409.701 81.9548L617.765 81.9548M409.701 14.3029L617.765 14.3029M549.557 79.5256L549.557 25.2968L595.224 25.2968L595.224 59.5464L572.39 59.5464L572.39 48.1295L583.807 48.1295L583.807 36.7125L560.974 36.7125L560.974 70.9622L606.641 70.9622L606.641 16.7333M481.055 79.5256L481.055 25.2968L526.722 25.2968L526.722 59.5464L503.888 59.5464L503.888 48.1295L515.305 48.1295L515.305 36.7125L492.471 36.7125L492.471 70.9622L538.138 70.9622L538.138 16.7333M412.555 79.5256L412.555 25.2968L458.222 25.2968L458.222 59.5464L435.388 59.5464L435.388 48.1295L446.805 48.1295L446.805 36.7125L423.971 36.7125L423.971 70.9622L469.639 70.9622L469.639 16.7333M205.107 3L413.263 3M205.107 93.2706L413.263 93.2706M205.196 81.9232L413.26 81.9232M205.196 14.2712L413.26 14.2712M345.056 79.4939L345.056 25.2651L390.723 25.2651L390.723 59.5148L367.889 59.5148L367.889 48.0978L379.306 48.0978L379.306 36.6809L356.472 36.6809L356.472 70.9305L402.14 70.9305L402.14 16.7017M276.551 79.4939L276.551 25.2651L322.218 25.2651L322.218 59.5148L299.384 59.5148L299.384 48.0978L310.801 48.0978L310.801 36.6809L287.967 36.6809L287.967 70.9305L333.634 70.9305L333.634 16.7017M208.049 79.4939L208.049 25.2651L253.716 25.2651L253.716 59.5148L230.882 59.5148L230.882 48.0978L242.299 48.0978L242.299 36.6809L219.465 36.6809L219.465 70.9305L265.132 70.9305L265.132 16.7017M0 3L208.155 3M6.15586e-07 93.2706L208.155 93.2706M0.0893047 81.9232L208.153 81.9232M0.0893043 14.2712L208.153 14.2712M139.946 79.4939L139.946 25.2651L185.613 25.2651L185.613 59.5148L162.779 59.5148L162.779 48.0978L174.196 48.0978L174.196 36.6809L151.362 36.6809L151.362 70.9305L197.029 70.9305L197.029 16.7017M71.4432 79.4939L71.4432 25.2651L117.11 25.2651L117.11 59.5148L94.2765 59.5148L94.2765 48.0978L105.693 48.0978L105.693 36.6809L82.8596 36.6809L82.8596 70.9305L128.527 70.9305L128.527 16.7017M2.94339 79.4939L2.94339 25.2651L48.6106 25.2651L48.6106 59.5148L25.7767 59.5148L25.7767 48.0978L37.1936 48.0978L37.1936 36.6809L14.3597 36.6809L14.3597 70.9305L60.0269 70.9305L60.0269 16.7017" stroke="#FFFFFF" stroke-width="5.71061"/>
<path d="M1838.96 93.2706L1633 93.2706M1838.96 3L1633.16 3M1838.9 14.3505L1633 14.3505M1838.29 81.9993L1626.99 81.9993M1699.03 16.7797L1699.03 71.0054L1653.28 71.0054L1653.28 36.7589L1676.16 36.7589L1676.16 48.1749L1664.72 48.1749L1664.72 59.5909L1687.59 59.5909L1687.59 25.3444L1641.84 25.3444L1641.84 79.5702M1767.52 16.7797L1767.52 71.0085L1721.85 71.0085L1721.85 36.7589L1744.69 36.7589L1744.69 48.1758L1733.27 48.1758L1733.27 59.5928L1756.1 59.5928L1756.1 25.3432L1710.44 25.3432L1710.44 79.572M1836.04 16.7797L1836.04 71.0085L1790.37 71.0085L1790.37 36.7589L1813.2 36.7589L1813.2 48.1758L1801.79 48.1758L1801.79 59.5928L1824.62 59.5928L1824.62 25.3432L1778.95 25.3432L1778.95 79.572M2044.09 93.2706L1835.93 93.2706M2044.09 3L1835.93 3M2044 14.3505L1835.93 14.3505M2044 81.9993L1835.93 81.9993M1904.13 16.7797L1904.13 71.0085L1858.46 71.0085L1858.46 36.7589L1881.29 36.7589L1881.29 48.1758L1869.88 48.1758L1869.88 59.5928L1892.71 59.5928L1892.71 25.3432L1847.04 25.3432L1847.04 79.572M1972.64 16.7797L1972.64 71.0085L1926.98 71.0085L1926.98 36.7589L1949.81 36.7589L1949.81 48.1758L1938.39 48.1758L1938.39 59.5928L1961.23 59.5928L1961.23 25.3432L1915.56 25.3432L1915.56 79.572M2041.13 16.7797L2041.13 71.0085L1995.46 71.0085L1995.46 36.7589L2018.3 36.7589L2018.3 48.1758L2006.88 48.1758L2006.88 59.5928L2029.72 59.5928L2029.72 25.3432L1984.05 25.3432L1984.05 79.572M2248.59 93.3028L2040.44 93.3028M2248.59 3.03222L2040.44 3.03222M2248.5 14.3797L2040.44 14.3797M2248.5 82.0316L2040.44 82.0316M2108.64 16.8089L2108.64 71.0377L2062.98 71.0377L2062.98 36.7881L2085.81 36.7881L2085.81 48.205L2074.39 48.205L2074.39 59.622L2097.23 59.622L2097.23 25.3724L2051.56 25.3724L2051.56 79.6012M2177.15 16.8089L2177.15 71.0377L2131.48 71.0377L2131.48 36.7881L2154.32 36.7881L2154.32 48.205L2142.9 48.205L2142.9 59.622L2165.73 59.622L2165.73 25.3724L2120.07 25.3724L2120.07 79.6012M2245.65 16.8089L2245.65 71.0377L2199.98 71.0377L2199.98 36.7881L2222.82 36.7881L2222.82 48.205L2211.4 48.205L2211.4 59.622L2234.23 59.622L2234.23 25.3724L2188.57 25.3724L2188.57 79.6012M2453.7 93.3028L2245.54 93.3028M2453.7 3.03222L2245.54 3.03222M2453.61 14.3797L2245.55 14.3797M2453.61 82.0316L2245.55 82.0316M2313.75 16.8089L2313.75 71.0377L2268.09 71.0377L2268.09 36.7881L2290.92 36.7881L2290.92 48.205L2279.5 48.205L2279.5 59.622L2302.34 59.622L2302.34 25.3724L2256.67 25.3724L2256.67 79.6012M2382.26 16.8089L2382.26 71.0377L2336.59 71.0377L2336.59 36.7881L2359.42 36.7881L2359.42 48.205L2348.01 48.205L2348.01 59.622L2370.84 59.622L2370.84 25.3724L2325.17 25.3724L2325.17 79.6012M2450.76 16.8089L2450.76 71.0377L2405.09 71.0377L2405.09 36.7881L2427.92 36.7881L2427.92 48.205L2416.51 48.205L2416.51 59.622L2439.34 59.622L2439.34 25.3724L2393.67 25.3724L2393.67 79.6012M2657.62 93.2999L2449.47 93.2999M2657.62 3.02928L2449.47 3.02928M2657.54 14.3767L2449.47 14.3767M2657.54 82.0286L2449.47 82.0286M2517.68 16.8059L2517.68 71.0347L2472.01 71.0347L2472.01 36.7851L2494.84 36.7851L2494.84 48.2021L2483.43 48.2021L2483.43 59.619L2506.26 59.619L2506.26 25.3694L2460.59 25.3694L2460.59 79.5982M2586.18 16.8059L2586.18 71.0347L2540.51 71.0347L2540.51 36.7851L2563.35 36.7851L2563.35 48.2021L2551.93 48.2021L2551.93 59.619L2574.76 59.619L2574.76 25.3694L2529.1 25.3694L2529.1 79.5982M2654.68 16.8059L2654.68 71.0347L2609.02 71.0347L2609.02 36.7851L2631.85 36.7851L2631.85 48.2021L2620.43 48.2021L2620.43 59.619L2643.27 59.619L2643.27 25.3694L2597.6 25.3694L2597.6 79.5982M2862.73 93.2999L2654.58 93.2999M2862.73 3.02928L2654.58 3.02928M2862.64 14.3767L2654.58 14.3767M2862.64 82.0286L2654.58 82.0286M2722.79 16.8059L2722.79 71.0347L2677.12 71.0347L2677.12 36.7851L2699.95 36.7851L2699.95 48.2021L2688.54 48.2021L2688.54 59.619L2711.37 59.619L2711.37 25.3694L2665.7 25.3694L2665.7 79.5982M2791.29 16.8059L2791.29 71.0347L2745.62 71.0347L2745.62 36.7851L2768.46 36.7851L2768.46 48.2021L2757.04 48.2021L2757.04 59.619L2779.87 59.619L2779.87 25.3694L2734.21 25.3694L2734.21 79.5982M2859.79 16.8059L2859.79 71.0347L2814.12 71.0347L2814.12 36.7851L2836.96 36.7851L2836.96 48.2021L2825.54 48.2021L2825.54 59.619L2848.37 59.619L2848.37 25.3694L2802.71 25.3694L2802.71 79.5982M3067.24 93.3315L2859.08 93.3315M3067.24 3.06094L2859.08 3.06094M3067.15 14.4084L2859.08 14.4084M3067.15 82.0603L2859.08 82.0603M2927.29 16.8376L2927.29 71.0664L2881.62 71.0664L2881.62 36.8168L2904.45 36.8168L2904.45 48.2337L2893.04 48.2337L2893.04 59.6507L2915.87 59.6507L2915.87 25.4011L2870.2 25.4011L2870.2 79.6299M2995.79 16.8376L2995.79 71.0664L2950.13 71.0664L2950.13 36.8168L2972.96 36.8168L2972.96 48.2337L2961.54 48.2337L2961.54 59.6507L2984.38 59.6507L2984.38 25.4011L2938.71 25.4011L2938.71 79.6299M3064.3 16.8376L3064.3 71.0664L3018.63 71.0664L3018.63 36.8168L3041.46 36.8168L3041.46 48.2337L3030.05 48.2337L3030.05 59.6507L3052.88 59.6507L3052.88 25.4011L3007.21 25.4011L3007.21 79.6299M3272.34 93.3315L3064.19 93.3315M3272.34 3.06094L3064.19 3.06094M3272.25 14.4084L3064.19 14.4084M3272.25 82.0603L3064.19 82.0603M3132.4 16.8376L3132.4 71.0664L3086.73 71.0664L3086.73 36.8168L3109.56 36.8168L3109.56 48.2337L3098.15 48.2337L3098.15 59.6507L3120.98 59.6507L3120.98 25.4011L3075.31 25.4011L3075.31 79.6299M3200.9 16.8376L3200.9 71.0664L3155.23 71.0664L3155.23 36.8168L3178.07 36.8168L3178.07 48.2337L3166.65 48.2337L3166.65 59.6507L3189.48 59.6507L3189.48 25.4011L3143.82 25.4011L3143.82 79.6299M3269.4 16.8376L3269.4 71.0664L3223.73 71.0664L3223.73 36.8168L3246.57 36.8168L3246.57 48.2337L3235.15 48.2337L3235.15 59.6507L3257.98 59.6507L3257.98 25.4011L3212.32 25.4011L3212.32 79.6299" stroke="#FFFFFF" stroke-width="5.71061"/>
</svg>
