<?xml version="1.0" encoding="utf-8"?>
<!-- Generator: Adobe Illustrator 24.1.2, SVG Export Plug-In . SVG Version: 6.00 Build 0)  -->
<svg version="1.1" id="Layer_1" xmlns="http://www.w3.org/2000/svg" xmlns:xlink="http://www.w3.org/1999/xlink" x="0px" y="0px"
	 viewBox="0 0 1675.34 615.07" style="enable-background:new 0 0 1675.34 615.07;" xml:space="preserve">
<style type="text/css">
	.st0{fill:#FFFFFF;}
	.st1{fill:#1A69C6;}
	.st2{fill:#FFFFFF;}
	.st3{fill:#FFFFFF;}
	.st4{display:none;fill:#FFFFFF;}
	.st5{display:none;fill:none;stroke:#000000;stroke-width:2;stroke-linecap:round;stroke-linejoin:round;stroke-miterlimit:10;}
</style>
<g>
	<g>
		<path class="st1" d="M1081.87,170.63c-2.36,0.21-5.35-0.01-7.72-0.01c-78.14,0.03-156.28,0.02-234.42,0.04
			c-2.24,0-4.49,0.19-7.19,0.32c-0.23,2.14-0.57,3.9-0.57,5.67c-0.03,26.88-0.02,53.76-0.02,80.63c0,43.68,0,87.35,0.02,131.03
			c0,1.78,0.23,3.57,0.37,5.66c58.03,0,115.56,0,172.95,0c1.27-2.63,1.63-118.65,0.52-122.83c-2.31-1.21-68.79-1.63-73.96-0.25
			c-0.51,7.54-0.31,15.3-0.04,23.49c2.07,0.19,3.64,0.46,5.21,0.46c13.02,0.03,26.05,0.01,39.07,0.04c1.58,0,3.15,0.24,5.11,0.4
			c0,24.7,0,48.98,0,73.7c-1.44,0.22-2.78,0.6-4.11,0.6c-38.42,0.03-76.84,0.03-115.26,0c-1.35,0-2.7-0.34-4.34-0.55
			c0-57.74,0-115.1,0-173c1.76-0.22,3.4-0.61,5.05-0.61c18.02-0.04,36.03-0.03,54.05-0.03c52.64,0,105.27-0.01,157.91,0.03
			c2.26,0,5.56-0.03,7.81,0.18C1082.3,186.92,1081.87,179.3,1081.87,170.63z"/>
		<path class="st2" d="M209.22,444.45c2.7-0.19,5.4-0.54,8.1-0.55c78.04-0.03,156.07-0.02,234.11-0.04c2.11,0,4.22-0.24,6.07-0.35
			c1.55-3.81,1.45-219.58,0.11-222.53c-3.08-1.2-169.39-1.14-172.57,0.23c0,40.67,0,81.51,0,122.76c24.53,0,48.64,0,73.44,0
			c0.85-7.85,0.53-15.6,0.17-23.78c-2.16-0.2-3.84-0.49-5.51-0.5c-12.81-0.04-25.61-0.01-38.42-0.04c-1.59,0-3.18-0.22-4.56-0.33
			c-1.52-3.37-1.66-70-0.34-73.49c3.16-1.36,120.38-1.31,123.6,0.21c0,57.29,0,114.73,0,172.62c-2.25,0.18-4.15,0.46-6.04,0.46
			c-35.71,0.03-71.42,0.03-107.12,0.02c-37.01-0.01-74.02-0.04-111.03-0.06C209.22,427.54,209.22,436,209.22,444.45z"/>
		<path class="st1" d="M657.05,344.03c0-8.18,0-15.78,0-23.85c-1.83-0.19-3.39-0.49-4.95-0.49c-12.81-0.04-25.61-0.01-38.42-0.04
			c-1.57,0-3.14-0.27-5.04-0.44c0-24.64,0-48.84,0-73.54c1.34-0.25,2.66-0.7,3.98-0.7c38.53-0.04,77.06-0.03,115.59,0.01
			c1.34,0,2.67,0.44,4.26,0.72c0,57.65,0,114.92,0,172.49c-1.04,0.32-2.01,0.76-3.02,0.9c-1.17,0.16-2.38,0.08-3.58,0.08
			c-70.22,0-140.44,0-210.66-0.01c-2.02,0-4.04-0.22-6.52-0.37c-0.17-2.23-0.45-4.12-0.45-6c-0.02-42.49-0.02-84.97-0.02-127.46
			c0-36.09,0-72.18,0-108.28c0-1.71,0-3.42,0-5.29c-1.28-0.43-2.14-0.86-3.05-0.99c-1.17-0.16-2.38-0.1-3.58-0.1
			c-86.83,0-173.65-0.01-260.48,0.02c-1.99,0-3.97,0.3-6.16,0.48c0,74.48,0,148.41,0,222.75c57.8,0,115.2,0,172.49,0
			c1.48-2.93,1.63-119.73,0.11-123.39c-24.06,0-48.29,0-72.48,0c-1.68,2.54-1.89,20.14-0.11,23.94c1.43,0.12,3.12,0.39,4.81,0.39
			c12.92,0.04,25.83,0.01,38.75,0.04c1.57,0,3.13,0.29,4.97,0.47c0,24.67,0,48.88,0,73.57c-1.41,0.24-2.73,0.65-4.05,0.65
			c-38.53,0.04-77.06,0.04-115.59,0c-1.34,0-2.67-0.38-4.22-0.61c0-57.79,0-115.16,0-172.39c2.93-1.5,219.28-1.73,223.4-0.18
			c0.13,1.65,0.4,3.53,0.41,5.42c0.03,34.9,0.02,69.8,0.02,104.7c0,43.57,0,87.14,0.02,130.71c0,1.9,0.24,3.81,0.35,5.47
			c3.38,1.57,269.63,1.65,272.85,0.29c1.12-2.75,1.27-218.3-0.01-222.24c-1.11-0.16-2.45-0.53-3.79-0.53
			c-55.03-0.03-110.05-0.03-165.08,0c-1.25,0-2.51,0.31-3.55,0.45c-1.62,3.57-1.57,120.23,0.04,123.37
			C608.23,344.03,632.35,344.03,657.05,344.03z"/>
		<path class="st3" d="M1055.98,442.94c0-73.96,0-147.88,0-221.63c-3.03-1.44-169.93-1.6-173.16-0.35
			c-1.16,2.77-1.24,119.4,0.22,123.35c23.89,0.13,48.09,0.06,72.77,0.04c0-8.3,0-15.98,0-24.17c-1.64-0.18-3.19-0.49-4.75-0.49
			c-12.81-0.04-25.61-0.01-38.42-0.04c-1.6,0-3.19-0.19-5.19-0.31c-0.25-1.71-0.63-3.16-0.64-4.61c-0.04-21.57-0.03-43.14,0-64.71
			c0-1.37,0.3-2.75,0.5-4.48c1.53-0.22,2.88-0.59,4.22-0.59c38.42-0.03,76.84-0.03,115.27,0c1.36,0,2.71,0.35,3.84,0.51
			c1.36,3.29,1.42,169.6,0.23,172.7c-2.88,1.37-219.65,1.47-223.63-0.2c0-81.87,0-164.04,0-246.37c-1.64-0.41-2.64-0.75-3.67-0.89
			c-0.96-0.13-1.95-0.06-2.93-0.06c-86.83,0-173.66,0-260.49,0.02c-1.99,0-3.99,0.31-6.7,0.53c0,74.48,0,148.48,0,222.8
			c58.36,0,115.68,0,172.85,0c1.47-2.88,1.67-119.73,0.2-123.48c-24.16,0-48.48,0-73.43,0c-0.68,7.86-0.36,15.54-0.2,23.7
			c2.11,0.25,3.77,0.61,5.43,0.61c13.02,0.05,26.05,0.01,39.07,0.05c1.57,0,3.14,0.28,4.98,0.46c0,24.67,0,48.87,0,73.57
			c-1.38,0.24-2.7,0.66-4.02,0.66c-38.64,0.03-77.28,0.03-115.92,0c-1.23,0-2.46-0.41-3.91-0.67c0-57.72,0-115.09,0-172.32
			c2.92-1.51,219.31-1.73,223.43-0.16c0.12,1.85,0.38,3.95,0.38,6.06c0.02,66.12,0.02,132.23,0.02,198.35
			c0,12.36-0.02,24.71,0.02,37.07c0,1.69,0.27,3.37,0.39,4.81C785.92,444.16,1051.73,444.39,1055.98,442.94z"/>
		<path class="st1" d="M1081.25,170.63c0.13,1.65,0.4,29.3,0.41,31.19c0.03,34.9,0.02,69.8,0.02,104.7c0,43.57,0,87.14,0.02,130.71
			c0,1.9,0.24,3.81,0.35,5.47c3.38,1.57,269.63,1.65,272.85,0.29c1.12-2.75,1.27-218.3-0.01-222.24c-1.11-0.16-2.45-0.53-3.79-0.53
			c-55.03-0.03-110.05-0.03-165.08,0c-1.25,0-2.51,0.31-3.55,0.45c-1.62,3.57-1.57,120.23,0.04,123.37c23.97,0,48.08,0,72.79,0
			c0-8.18,0-15.78,0-23.85c-1.83-0.19-3.39-0.49-4.95-0.49c-12.81-0.04-25.61-0.01-38.42-0.04c-1.57,0-3.14-0.27-5.04-0.44
			c0-24.64,0-48.84,0-73.54c1.34-0.25,2.66-0.7,3.98-0.7c38.53-0.04,77.06-0.03,115.59,0.01c1.34,0,2.67,0.44,4.26,0.72
			c0,57.65,0,114.92,0,172.49c-1.04,0.32-2.01,0.76-3.02,0.9c-1.17,0.16-2.38,0.08-3.58,0.08c-70.22,0-140.44,0-210.66-0.01
			c-2.02,0-4.04-0.22-6.52-0.37c-0.17-2.23-0.45-4.12-0.45-6c-0.02-42.49-0.02-84.97-0.02-127.46c0-36.09,0-72.18,0-108.28
			c0-1.71,0.02-4.16,0.02-6.03c-1.27-0.23-2.16-0.12-3.06-0.25c-1.17-0.16-2.38-0.1-3.58-0.1"/>
		<path class="st3" d="M1405.47,442.71c0-81.87,0-188.78,0-271.11c-1.64-0.41-2.64-0.75-3.67-0.89c-0.96-0.13-1.95-0.06-2.93-0.06
			c-86.83,0-173.66,0-260.49,0.02c-1.99,0-3.99,0.31-6.7,0.53c0,74.48,0,148.48,0,222.8c58.36,0,115.68,0,172.85,0
			c1.47-2.88,1.67-119.73,0.2-123.48c-24.16,0-48.48,0-73.43,0c-0.68,7.86-0.36,15.54-0.2,23.7c2.11,0.25,3.77,0.61,5.43,0.61
			c13.02,0.05,26.05,0.01,39.07,0.05c1.57,0,3.14,0.28,4.98,0.46c0,24.67,0,48.87,0,73.57c-1.38,0.24-2.7,0.66-4.02,0.66
			c-38.64,0.03-77.28,0.03-115.92,0c-1.23,0-2.46-0.41-3.91-0.67c0-57.72,0-115.09,0-172.32c2.92-1.51,219.31-1.73,223.43-0.16
			c0.12,1.85,0.38,3.95,0.38,6.06c0.02,66.12,0.02,132.23,0.02,198.35c0,12.36-0.02,24.71,0.02,37.07c0,1.69,0.27,3.37,0.39,4.81"/>
	</g>
	<path class="st5" d="M1401.38,42.65c-445.67,0-891.33,0-1337,0"/>
	<path class="st5" d="M64.38,539.85c1.83,0.08,3.66,0.24,5.5,0.24c443.84,0.01,887.67,0.01,1331.51,0.01"/>
</g>
</svg>
